<?xml version="1.0" standalone="no"?><!-- Generator: Gravit.io --><svg xmlns="http://www.w3.org/2000/svg" xmlns:xlink="http://www.w3.org/1999/xlink" style="isolation:isolate" viewBox="594.12 162 91.76 91.764" width="91.76" height="91.764"><g><path d=" M 626.346 233.943 L 612.656 241.41 C 611.853 241.848 611.131 242.387 610.459 242.974 C 618.441 249.704 628.744 253.764 640.002 253.764 C 651.176 253.764 661.414 249.764 669.373 243.126 C 668.639 242.506 667.842 241.949 666.959 241.509 L 652.3 234.18 C 650.406 233.233 649.209 231.297 649.209 229.18 L 649.209 223.428 C 649.621 222.959 650.092 222.356 650.596 221.645 C 652.594 218.822 654.106 215.718 655.153 212.461 C 657.033 211.881 658.418 210.145 658.418 208.081 L 658.418 201.941 C 658.418 200.591 657.818 199.384 656.884 198.539 L 656.884 189.664 C 656.884 189.664 658.708 175.853 640.003 175.853 C 621.299 175.853 623.122 189.664 623.122 189.664 L 623.122 198.539 C 622.187 199.384 621.588 200.591 621.588 201.941 L 621.588 208.081 C 621.588 209.698 622.438 211.121 623.711 211.944 C 625.245 218.622 629.262 223.428 629.262 223.428 L 629.262 229.038 C 629.26 231.081 628.142 232.963 626.346 233.943 Z " fill="rgb(231,236,237)"/><g><path d=" M 640.786 162.007 C 615.451 161.574 594.56 181.762 594.127 207.097 C 593.881 221.463 600.284 234.374 610.478 242.96 C 611.145 242.378 611.86 241.845 612.654 241.412 L 626.344 233.944 C 628.14 232.964 629.258 231.082 629.258 229.036 L 629.258 223.426 C 629.258 223.426 625.24 218.62 623.708 211.942 C 622.437 211.119 621.585 209.698 621.585 208.079 L 621.585 201.94 C 621.585 200.589 622.186 199.382 623.119 198.537 L 623.119 189.662 C 623.119 189.662 621.296 175.851 640 175.851 C 658.704 175.851 656.881 189.662 656.881 189.662 L 656.881 198.537 C 657.816 199.382 658.415 200.589 658.415 201.94 L 658.415 208.079 C 658.415 210.143 657.03 211.88 655.15 212.46 C 654.102 215.716 652.591 218.821 650.593 221.643 C 650.089 222.354 649.618 222.957 649.206 223.426 L 649.206 229.178 C 649.206 231.295 650.402 233.233 652.296 234.178 L 666.956 241.507 C 667.836 241.947 668.63 242.503 669.363 243.121 C 679.249 234.876 685.636 222.548 685.873 208.666 C 686.309 183.331 666.123 162.44 640.786 162.007 Z " fill="rgb(85,96,128)"/></g></g></svg>